<svg width="11" height="10" viewBox="0 0 11 10" fill="none" xmlns="http://www.w3.org/2000/svg">
<path d="M1.37533 0.912109H9.62533C9.87846 0.912109 10.0837 1.11731 10.0837 1.37044V8.70378C10.0837 8.95691 9.87846 9.16211 9.62533 9.16211H6.87533C6.87533 8.8504 6.8514 8.54423 6.80525 8.24544H9.16699V1.82878H1.83366V3.27386C1.53485 3.22771 1.22872 3.20378 0.916992 3.20378V1.37044C0.916992 1.11731 1.1222 0.912109 1.37533 0.912109ZM5.95866 9.16211H5.04199C5.04199 6.88392 3.19517 5.03711 0.916992 5.03711V4.12044C3.70143 4.12044 5.95866 6.37769 5.95866 9.16211ZM4.12533 9.16211H3.20866C3.20866 7.89647 2.18264 6.87044 0.916992 6.87044V5.95378C2.6889 5.95378 4.12533 7.39019 4.12533 9.16211ZM2.29199 9.16211H0.916992V7.78711C1.67638 7.78711 2.29199 8.4027 2.29199 9.16211ZM6.58795 7.32878C6.00128 5.51268 4.56643 4.07784 2.75033 3.49115V2.74544H8.25033V7.32878H6.58795Z" fill="#F8F8F8"/>
</svg>
