<svg width="12" height="13" viewBox="0 0 12 13" fill="none" xmlns="http://www.w3.org/2000/svg">
<path d="M5.10888 11.9401H2.68947C1.9055 11.9372 1.26987 11.3039 1.26411 10.52V5.70744C1.26565 5.445 1.38308 5.19666 1.58495 5.02895L2.01098 4.71337C2.16651 4.54766 2.18232 4.2948 2.04865 4.111C1.91498 3.9272 1.66955 3.86434 1.46398 3.96125L1.02743 4.28734C0.587073 4.62807 0.325751 5.15072 0.317383 5.70744V10.5252C0.320275 11.8341 1.3806 12.8944 2.68947 12.8973H5.10888C5.37032 12.8973 5.58225 12.6854 5.58225 12.424C5.58225 12.1625 5.37032 11.9506 5.10888 11.9506V11.9401Z" fill="white"/>
<path d="M11.6838 5.69707C11.6782 5.14444 11.4254 4.62335 10.9948 4.27698L7.36037 1.37894C6.56172 0.736969 5.42402 0.736969 4.62537 1.37894L3.47352 2.21521C3.25711 2.37062 3.20766 2.67204 3.36307 2.88844C3.51847 3.10485 3.81989 3.1543 4.0363 2.99889L5.20393 2.1258C5.66222 1.7485 6.32352 1.7485 6.78181 2.1258L10.4162 5.02384C10.6254 5.18966 10.749 5.44069 10.7528 5.70759V10.5254C10.7528 11.3097 10.117 11.9455 9.33272 11.9455H8.2545C8.14412 11.9455 8.05463 11.856 8.05463 11.7456V9.5734C8.05464 8.8812 7.49504 8.31925 6.80285 8.31636H5.22497C4.89158 8.31636 4.57184 8.44879 4.3361 8.68454C4.10036 8.92028 3.96792 9.24001 3.96792 9.5734V10.4044C3.96792 10.6659 4.17985 10.8778 4.44129 10.8778C4.70272 10.8778 4.91465 10.6659 4.91465 10.4044V9.5734C4.91324 9.49159 4.94476 9.41264 5.00212 9.35429C5.05948 9.29593 5.13788 9.26307 5.21971 9.26308H6.79759C6.96607 9.26308 7.10265 9.39966 7.10265 9.56814V11.7456C7.10554 12.3797 7.6204 12.8922 8.2545 12.8922H9.30642C10.6165 12.8922 11.6785 11.8302 11.6785 10.5201L11.6838 5.69707Z" fill="white"/>
</svg>
