<svg width="13" height="14" viewBox="0 0 13 14" fill="none" xmlns="http://www.w3.org/2000/svg">
<g clip-path="url(#clip0_1102_2468)">
<path d="M6 12.3371H10.8V13.5371H6C2.68629 13.5371 0 10.8508 0 7.53711C0 4.2234 2.68629 1.53711 6 1.53711C9.31368 1.53711 12 4.2234 12 7.53711C12 8.88783 11.5537 10.1343 10.8004 11.1371H9.17496C10.1715 10.2576 10.8 8.97075 10.8 7.53711C10.8 4.88614 8.65098 2.73711 6 2.73711C3.34903 2.73711 1.2 4.88614 1.2 7.53711C1.2 10.1881 3.34903 12.3371 6 12.3371ZM6 6.33711C5.33724 6.33711 4.8 5.79985 4.8 5.13711C4.8 4.47437 5.33724 3.93711 6 3.93711C6.66276 3.93711 7.2 4.47437 7.2 5.13711C7.2 5.79985 6.66276 6.33711 6 6.33711ZM3.6 8.73711C2.93726 8.73711 2.4 8.19987 2.4 7.53711C2.4 6.87435 2.93726 6.33711 3.6 6.33711C4.26274 6.33711 4.8 6.87435 4.8 7.53711C4.8 8.19987 4.26274 8.73711 3.6 8.73711ZM8.4 8.73711C7.73724 8.73711 7.2 8.19987 7.2 7.53711C7.2 6.87435 7.73724 6.33711 8.4 6.33711C9.06276 6.33711 9.6 6.87435 9.6 7.53711C9.6 8.19987 9.06276 8.73711 8.4 8.73711ZM6 11.1371C5.33724 11.1371 4.8 10.5999 4.8 9.93711C4.8 9.27435 5.33724 8.73711 6 8.73711C6.66276 8.73711 7.2 9.27435 7.2 9.93711C7.2 10.5999 6.66276 11.1371 6 11.1371Z" fill="white"/>
</g>
<defs>
<clipPath id="clip0_1102_2468">
<rect width="13" height="13" fill="white" transform="translate(0 0.537109)"/>
</clipPath>
</defs>
</svg>
