<svg width="12" height="13" viewBox="0 0 12 13" fill="none" xmlns="http://www.w3.org/2000/svg">
<path d="M1.75736 0.537109L2.60589 1.42697C1.73726 2.33791 1.2 3.59636 1.2 4.9864C1.2 6.37643 1.73726 7.63488 2.60589 8.54581L1.75736 9.43566C0.671574 8.29702 0 6.72395 0 4.9864C0 3.24884 0.671574 1.67579 1.75736 0.537109ZM10.2427 0.537109C11.3284 1.67579 12 3.24884 12 4.9864C12 6.72395 11.3284 8.29702 10.2427 9.43566L9.39414 8.54581C10.2628 7.63488 10.8 6.37643 10.8 4.9864C10.8 3.59636 10.2628 2.33791 9.39414 1.42697L10.2427 0.537109ZM3.45442 2.31683L4.30294 3.20668C3.86863 3.66215 3.6 4.29138 3.6 4.9864C3.6 5.68139 3.86863 6.31062 4.30294 6.76611L3.45442 7.65596C2.80294 6.97275 2.4 6.02891 2.4 4.9864C2.4 3.94386 2.80294 3.00003 3.45442 2.31683ZM8.54556 2.31683C9.19704 3.00003 9.6 3.94386 9.6 4.9864C9.6 6.02891 9.19704 6.97275 8.54556 7.65596L7.69704 6.76611C8.13138 6.31062 8.4 5.68139 8.4 4.9864C8.4 4.29138 8.13138 3.66215 7.69704 3.20668L8.54556 2.31683ZM6 6.24486C5.33724 6.24486 4.8 5.68139 4.8 4.9864C4.8 4.29138 5.33724 3.72795 6 3.72795C6.66276 3.72795 7.2 4.29138 7.2 4.9864C7.2 5.68139 6.66276 6.24486 6 6.24486ZM5.4 7.50331H6.6V12.5371H5.4V7.50331Z" fill="white"/>
</svg>
